<mxfile host="app.diagrams.net" modified="2021-01-23T06:06:07.587Z" agent="5.0 (Windows NT 10.0; Win64; x64) AppleWebKit/537.36 (KHTML, like Gecko) Chrome/87.0.4280.88 Safari/537.36" etag="vQv2zTTV1GeH9nGaA_yf" version="14.2.6" type="github">
  <diagram id="INHrBOE6L-116kQ4Tx2w" name="第 1 页">
    <mxGraphModel dx="1422" dy="762" grid="1" gridSize="10" guides="1" tooltips="1" connect="1" arrows="1" fold="1" page="1" pageScale="1" pageWidth="827" pageHeight="1169" math="0" shadow="0">
      <root>
        <mxCell id="0" />
        <mxCell id="1" parent="0" />
        <mxCell id="W8qkn8d0vrweysbJjt9F-34" value="" style="rounded=0;whiteSpace=wrap;html=1;strokeWidth=2;" parent="1" vertex="1">
          <mxGeometry x="46" y="100" width="694" height="320" as="geometry" />
        </mxCell>
        <mxCell id="W8qkn8d0vrweysbJjt9F-33" value="" style="rounded=0;whiteSpace=wrap;html=1;dashed=1;strokeColor=#7EA6E0;strokeWidth=2;" parent="1" vertex="1">
          <mxGeometry x="73" y="145" width="627" height="205" as="geometry" />
        </mxCell>
        <mxCell id="W8qkn8d0vrweysbJjt9F-1" value="" style="aspect=fixed;pointerEvents=1;shadow=0;dashed=0;html=1;strokeColor=none;labelPosition=center;verticalLabelPosition=bottom;verticalAlign=top;align=center;fillColor=#00188D;shape=mxgraph.mscae.enterprise.android_phone" parent="1" vertex="1">
          <mxGeometry x="100" y="200" width="66" height="110" as="geometry" />
        </mxCell>
        <mxCell id="W8qkn8d0vrweysbJjt9F-6" value="" style="shape=flexArrow;endArrow=classic;html=1;fillColor=#d5e8d4;strokeColor=#82b366;entryX=0;entryY=0.5;entryDx=0;entryDy=0;" parent="1" target="W8qkn8d0vrweysbJjt9F-14" edge="1">
          <mxGeometry width="50" height="50" relative="1" as="geometry">
            <mxPoint x="166" y="250" as="sourcePoint" />
            <mxPoint x="390" y="250" as="targetPoint" />
          </mxGeometry>
        </mxCell>
        <mxCell id="W8qkn8d0vrweysbJjt9F-4" value="" style="ellipse;shape=cloud;whiteSpace=wrap;html=1;fillColor=#b1ddf0;strokeColor=#10739e;" parent="1" vertex="1">
          <mxGeometry x="215" y="207.5" width="120" height="80" as="geometry" />
        </mxCell>
        <mxCell id="W8qkn8d0vrweysbJjt9F-14" value="" style="rounded=0;whiteSpace=wrap;html=1;strokeWidth=4;strokeColor=#7EA6E0;" parent="1" vertex="1">
          <mxGeometry x="440" y="195" width="230" height="115" as="geometry" />
        </mxCell>
        <mxCell id="W8qkn8d0vrweysbJjt9F-15" value="" style="ellipse;whiteSpace=wrap;html=1;aspect=fixed;strokeColor=#7EA6E0;strokeWidth=4;" parent="1" vertex="1">
          <mxGeometry x="440" y="230" width="45" height="45" as="geometry" />
        </mxCell>
        <mxCell id="W8qkn8d0vrweysbJjt9F-16" value="" style="rounded=0;whiteSpace=wrap;html=1;strokeColor=#7EA6E0;strokeWidth=4;" parent="1" vertex="1">
          <mxGeometry x="610" y="230" width="50" height="50" as="geometry" />
        </mxCell>
        <mxCell id="W8qkn8d0vrweysbJjt9F-17" value="" style="shape=flexArrow;endArrow=classic;html=1;fillColor=#d5e8d4;strokeColor=#82b366;entryX=0;entryY=0.5;entryDx=0;entryDy=0;" parent="1" target="W8qkn8d0vrweysbJjt9F-16" edge="1">
          <mxGeometry width="50" height="50" relative="1" as="geometry">
            <mxPoint x="485" y="252" as="sourcePoint" />
            <mxPoint x="535" y="252" as="targetPoint" />
          </mxGeometry>
        </mxCell>
        <mxCell id="W8qkn8d0vrweysbJjt9F-18" value="&lt;b&gt;&lt;font style=&quot;font-size: 20px&quot;&gt;Flink系统&lt;/font&gt;&lt;/b&gt;" style="text;html=1;strokeColor=none;fillColor=none;align=center;verticalAlign=middle;whiteSpace=wrap;rounded=0;" parent="1" vertex="1">
          <mxGeometry x="485" y="160" width="160" height="30" as="geometry" />
        </mxCell>
        <mxCell id="W8qkn8d0vrweysbJjt9F-19" value="&lt;b&gt;&lt;font style=&quot;font-size: 14px&quot;&gt;刚进入Flink&lt;/font&gt;&lt;/b&gt;" style="text;html=1;strokeColor=none;fillColor=none;align=center;verticalAlign=middle;whiteSpace=wrap;rounded=0;" parent="1" vertex="1">
          <mxGeometry x="440" y="200" width="90" height="30" as="geometry" />
        </mxCell>
        <mxCell id="W8qkn8d0vrweysbJjt9F-20" value="&lt;span style=&quot;font-size: 14px&quot;&gt;&lt;b&gt;执行算子&lt;/b&gt;&lt;/span&gt;" style="text;html=1;strokeColor=none;fillColor=none;align=center;verticalAlign=middle;whiteSpace=wrap;rounded=0;" parent="1" vertex="1">
          <mxGeometry x="595" y="195" width="80" height="30" as="geometry" />
        </mxCell>
        <mxCell id="W8qkn8d0vrweysbJjt9F-21" value="&lt;b&gt;&lt;font style=&quot;font-size: 18px&quot;&gt;网络传输&lt;/font&gt;&lt;/b&gt;" style="text;html=1;strokeColor=none;fillColor=none;align=center;verticalAlign=middle;whiteSpace=wrap;rounded=0;" parent="1" vertex="1">
          <mxGeometry x="230" y="170" width="90" height="30" as="geometry" />
        </mxCell>
        <mxCell id="W8qkn8d0vrweysbJjt9F-22" value="&lt;b&gt;&lt;font style=&quot;font-size: 18px&quot;&gt;数据产生端&lt;/font&gt;&lt;/b&gt;" style="text;html=1;strokeColor=none;fillColor=none;align=center;verticalAlign=middle;whiteSpace=wrap;rounded=0;" parent="1" vertex="1">
          <mxGeometry x="77" y="160" width="112" height="30" as="geometry" />
        </mxCell>
        <mxCell id="W8qkn8d0vrweysbJjt9F-24" value="" style="endArrow=classic;html=1;entryX=0.5;entryY=1;entryDx=0;entryDy=0;entryPerimeter=0;strokeWidth=3;" parent="1" target="W8qkn8d0vrweysbJjt9F-1" edge="1">
          <mxGeometry width="50" height="50" relative="1" as="geometry">
            <mxPoint x="133" y="370" as="sourcePoint" />
            <mxPoint x="190" y="410" as="targetPoint" />
          </mxGeometry>
        </mxCell>
        <mxCell id="W8qkn8d0vrweysbJjt9F-25" value="" style="endArrow=classic;html=1;entryX=0.5;entryY=1;entryDx=0;entryDy=0;entryPerimeter=0;strokeWidth=3;" parent="1" edge="1">
          <mxGeometry width="50" height="50" relative="1" as="geometry">
            <mxPoint x="462" y="370" as="sourcePoint" />
            <mxPoint x="462" y="290" as="targetPoint" />
          </mxGeometry>
        </mxCell>
        <mxCell id="W8qkn8d0vrweysbJjt9F-26" value="" style="endArrow=classic;html=1;entryX=0.5;entryY=1;entryDx=0;entryDy=0;entryPerimeter=0;strokeWidth=3;" parent="1" edge="1">
          <mxGeometry width="50" height="50" relative="1" as="geometry">
            <mxPoint x="635" y="370" as="sourcePoint" />
            <mxPoint x="634.5" y="290" as="targetPoint" />
          </mxGeometry>
        </mxCell>
        <mxCell id="W8qkn8d0vrweysbJjt9F-27" value="&lt;b&gt;&lt;font style=&quot;font-size: 16px&quot;&gt;Event Time&lt;/font&gt;&lt;/b&gt;" style="text;html=1;strokeColor=none;fillColor=none;align=center;verticalAlign=middle;whiteSpace=wrap;rounded=0;dashed=1;" parent="1" vertex="1">
          <mxGeometry x="85.25" y="370" width="95.5" height="20" as="geometry" />
        </mxCell>
        <mxCell id="W8qkn8d0vrweysbJjt9F-28" value="" style="html=1;verticalLabelPosition=bottom;align=center;labelBackgroundColor=#ffffff;verticalAlign=top;strokeWidth=2;strokeColor=#0080F0;shadow=0;dashed=0;shape=mxgraph.ios7.icons.clock;" parent="1" vertex="1">
          <mxGeometry x="65.25" y="370" width="20" height="20" as="geometry" />
        </mxCell>
        <mxCell id="W8qkn8d0vrweysbJjt9F-29" value="&lt;b&gt;&lt;font style=&quot;font-size: 16px&quot;&gt;Ingestion Time&lt;/font&gt;&lt;/b&gt;" style="text;html=1;strokeColor=none;fillColor=none;align=center;verticalAlign=middle;whiteSpace=wrap;rounded=0;dashed=1;" parent="1" vertex="1">
          <mxGeometry x="414" y="375" width="116" height="20" as="geometry" />
        </mxCell>
        <mxCell id="W8qkn8d0vrweysbJjt9F-30" value="&lt;b&gt;&lt;font style=&quot;font-size: 16px&quot;&gt;Processing Time&lt;/font&gt;&lt;/b&gt;" style="text;html=1;strokeColor=none;fillColor=none;align=center;verticalAlign=middle;whiteSpace=wrap;rounded=0;dashed=1;" parent="1" vertex="1">
          <mxGeometry x="600" y="375" width="133" height="20" as="geometry" />
        </mxCell>
        <mxCell id="W8qkn8d0vrweysbJjt9F-31" value="" style="html=1;verticalLabelPosition=bottom;align=center;labelBackgroundColor=#ffffff;verticalAlign=top;strokeWidth=2;strokeColor=#0080F0;shadow=0;dashed=0;shape=mxgraph.ios7.icons.clock;" parent="1" vertex="1">
          <mxGeometry x="390" y="375" width="20" height="20" as="geometry" />
        </mxCell>
        <mxCell id="W8qkn8d0vrweysbJjt9F-32" value="" style="html=1;verticalLabelPosition=bottom;align=center;labelBackgroundColor=#ffffff;verticalAlign=top;strokeWidth=2;strokeColor=#0080F0;shadow=0;dashed=0;shape=mxgraph.ios7.icons.clock;" parent="1" vertex="1">
          <mxGeometry x="575" y="375" width="20" height="20" as="geometry" />
        </mxCell>
        <mxCell id="W8qkn8d0vrweysbJjt9F-35" value="&lt;b&gt;Data Source&lt;/b&gt;" style="text;html=1;strokeColor=none;fillColor=none;align=center;verticalAlign=middle;whiteSpace=wrap;rounded=0;" parent="1" vertex="1">
          <mxGeometry x="432" y="237.5" width="61" height="20" as="geometry" />
        </mxCell>
        <mxCell id="W8qkn8d0vrweysbJjt9F-36" value="&lt;b&gt;Operator&lt;/b&gt;" style="text;html=1;strokeColor=none;fillColor=none;align=center;verticalAlign=middle;whiteSpace=wrap;rounded=0;" parent="1" vertex="1">
          <mxGeometry x="605.5" y="242.5" width="59" height="20" as="geometry" />
        </mxCell>
        <mxCell id="W8qkn8d0vrweysbJjt9F-38" value="" style="shape=image;html=1;verticalAlign=top;verticalLabelPosition=bottom;labelBackgroundColor=#ffffff;imageAspect=0;aspect=fixed;image=https://cdn0.iconfinder.com/data/icons/social-media-2104/24/social_media_social_media_logo_wechat-128.png;strokeColor=#000000;strokeWidth=2;" parent="1" vertex="1">
          <mxGeometry x="600" y="105" width="30" height="30" as="geometry" />
        </mxCell>
        <mxCell id="W8qkn8d0vrweysbJjt9F-39" value="&lt;b&gt;&lt;font style=&quot;font-size: 14px&quot;&gt;五分钟学大数据&lt;/font&gt;&lt;/b&gt;" style="text;html=1;strokeColor=none;fillColor=none;align=center;verticalAlign=middle;whiteSpace=wrap;rounded=0;" parent="1" vertex="1">
          <mxGeometry x="633" y="110" width="100" height="20" as="geometry" />
        </mxCell>
      </root>
    </mxGraphModel>
  </diagram>
</mxfile>
